<!--?xml version="1.0" standalone="no"?-->
              <svg id="sw-js-blob-svg" viewBox="0 0 100 100" xmlns="http://www.w3.org/2000/svg" version="1.1">
                    <defs> 
                        <linearGradient id="sw-gradient" x1="0" x2="1" y1="1" y2="0">
                            <stop id="stop1" stop-color="rgba(248, 117, 55, 1)" offset="0%"></stop>
                            <stop id="stop2" stop-color="rgba(251, 168, 31, 1)" offset="100%"></stop>
                        </linearGradient>
                    </defs>
                <path fill="none" d="M18.9,-23.1C23.7,-18.5,26.4,-11.8,27.4,-5C28.5,1.8,27.9,8.8,25.7,17.1C23.6,25.3,19.9,34.9,12.6,39.9C5.2,45,-5.7,45.4,-14.5,41.5C-23.2,37.5,-29.7,29.2,-33.2,20.5C-36.6,11.7,-37.1,2.5,-35.2,-5.8C-33.2,-14.2,-28.9,-21.7,-22.6,-26.1C-16.3,-30.5,-8.2,-31.8,-0.6,-31.1C7,-30.4,14.1,-27.8,18.9,-23.1Z" width="100%" height="100%" transform="translate(50 50)" stroke-width="1" style="transition: all 0.3s ease 0s;" stroke="url(#sw-gradient)"></path>
              </svg>