<!--?xml version="1.0" standalone="no"?-->
              <svg id="sw-js-blob-svg" viewBox="0 0 100 100" xmlns="http://www.w3.org/2000/svg" version="1.1">
                    <defs> 
                        <linearGradient id="sw-gradient" x1="0" x2="1" y1="1" y2="0">
                            <stop id="stop1" stop-color="rgba(248, 117, 55, 1)" offset="0%"></stop>
                            <stop id="stop2" stop-color="rgba(251, 168, 31, 1)" offset="100%"></stop>
                        </linearGradient>
                    </defs>
                <path fill="none" d="M20.6,-25.8C27.1,-19.1,33,-13,36.1,-4.9C39.2,3.1,39.5,13,34.8,19.1C30.1,25.3,20.5,27.5,12,28.9C3.4,30.3,-4,30.7,-11.4,29C-18.9,27.3,-26.5,23.5,-32.7,16.9C-38.8,10.3,-43.6,0.9,-42.7,-8.1C-41.8,-17.1,-35.2,-25.6,-27.1,-32C-19.1,-38.3,-9.5,-42.6,-1.2,-41.1C7.1,-39.6,14.1,-32.4,20.6,-25.8Z" width="100%" height="100%" transform="translate(50 50)" stroke-width="1" style="transition: all 0.3s ease 0s;" stroke="url(#sw-gradient)"></path>
              </svg>