<!--?xml version="1.0" standalone="no"?-->
              <svg id="sw-js-blob-svg" viewBox="0 0 100 100" xmlns="http://www.w3.org/2000/svg" version="1.1">
                    <defs> 
                        <linearGradient id="sw-gradient" x1="0" x2="1" y1="1" y2="0">
                            <stop id="stop1" stop-color="rgba(248, 117, 55, 1)" offset="0%"></stop>
                            <stop id="stop2" stop-color="rgba(251, 168, 31, 1)" offset="100%"></stop>
                        </linearGradient>
                    </defs>
                <path fill="url(#sw-gradient)" d="M20.7,-26.2C26,-20.3,28.9,-12.9,29.6,-5.7C30.3,1.6,29,8.8,26.4,17.1C23.8,25.4,19.9,34.8,13.1,38.4C6.2,42,-3.7,39.7,-10.9,34.9C-18.1,30.1,-22.6,22.9,-26.3,15.6C-30,8.3,-32.9,1,-33,-7.1C-33,-15.1,-30.3,-24,-24.3,-29.8C-18.4,-35.7,-9.2,-38.5,-0.7,-37.6C7.7,-36.8,15.4,-32.2,20.7,-26.2Z" width="100%" height="100%" transform="translate(50 50)" stroke-width="0" style="transition: all 0.3s ease 0s;" stroke="url(#sw-gradient)"></path>
              </svg>